# xmcd CD database file
#
# Track frame offsets:
#	151
#	23871
#	45925
#	87148
#	125246
#	159532
#	210323
#	232964
#	254537
#	266516
#	279882
#	297769
#	324071
#
# Disc length: 4731 seconds
#
# Revision: 0
# Processed by: cddbd v1.5.2PL0 Copyright (c) Steve Scherf et al.
# Submitted via: CDex 1.51
#
DISCID=a612790d
DTITLE=Senzoku Gakuen Symphonic Wind Orchestra - Alfred Reed live Vol. 6 The Final Recorded Concert
DYEAR=2005
DGENRE=Wind Band
TTITLE0=Alfred Reed - Joyeux Noel
TTITLE1=Alfred Reed - Rosalind in the Forest of Arden
TTITLE2=Alfred Reed - Symphony No. 3 I. Pesante e molto sostenuto
TTITLE3=Alfred Reed - Symphony No. 3 II. Variations on the 'Porazzi' Theme of Wagner
TTITLE4=Alfred Reed - Symphony No. 3 III. Allegro Deciso
TTITLE5=Alfred Reed - El Camino Real
TTITLE6=Alfred Reed - Twelfth Night I. Prelude - Illyria
TTITLE7=Alfred Reed - Twelfth Night II. Viola and Orsino
TTITLE8=Alfred Reed - Twelfth Night III. The Merry Conspirators
TTITLE9=Alfred Reed - Twelfth Night IV. Malvolio's Lament in 'Prison'
TTITLE10=Alfred Reed - Twelfth Night V. A Double Wedding and All's well
TTITLE11=Alfred Reed - Danza Caribe
TTITLE12=Julius Fucik - Florentiner March
EXTD=YEAR: 2005
EXTT0=
EXTT1=
EXTT2=
EXTT3=
EXTT4=
EXTT5=
EXTT6=
EXTT7=
EXTT8=
EXTT9=
EXTT10=
EXTT11=
EXTT12=
PLAYORDER=
